<svg width="86" height="86" viewBox="0 0 86 86" fill="none" xmlns="http://www.w3.org/2000/svg">
<path d="M4.6 38.5C2 37.9 0.899997 35.9 1.5 33.3C2.1 30.7 3.9 29.7 6 30.2H6.2L5.8 32.1H5.6C4.6 31.8 3.6 32.4 3.3 33.4C3.3 33.5 3.2 33.6 3.2 33.7C2.8 34.9 3.5 36.1 4.7 36.5C4.8 36.5 4.9 36.6 5 36.6L7.5 37.2C8.7 37.6 9.9 36.9 10.3 35.7C10.3 35.6 10.4 35.5 10.4 35.4C10.8 34.4 10.3 33.3 9.3 32.9C9.2 32.9 9.1 32.8 8.9 32.8H8.8L8.2 35.3L6.6 34.9L7.6 30.5L9.1 30.8C11.5 31.4 12.7 33.2 12.1 35.7C11.5 38.2 9.7 39.6 7 39L4.6 38.5Z" fill="#FFD700"/>
<path d="M7.49999 19.5L9.09999 20.4L6.69999 24.7L8.89999 25.9L11.1 21.9L12.7 22.8L10.5 26.8L12.8 28L15.2 23.6L16.8 24.5L13.5 30.6L4.29999 25.6L7.49999 19.5Z" fill="#FFD700"/>
<path d="M15.4 10.5L16.7 11.8L14.5 14.1L20.8 20.1L19.4 21.5L13.1 15.5L10.9 17.8L9.60001 16.6L15.4 10.5Z" fill="#FFD700"/>
<path d="M24.9 4.60001L29.6 14L27.8 14.9L23.1 5.50001L24.9 4.60001Z" fill="#FFD700"/>
<path d="M31.8 2.1L36.4 9.7H36.5L34.4 1.5L36.3 1L38.9 11.2L35.6 12.1L31 4.3H30.9L33 12.5L31.1 13L28.5 2.9L31.8 2.1Z" fill="#FFD700"/>
<path d="M54.5 1.90001L54.2 3.70001L51 3.20001L49.5 11.8L47.5 11.5L49 2.90001L45.9 2.40001L46.2 0.600006L54.5 1.90001Z" fill="#FFD700"/>
<path d="M61.8 4.70001C64.2 5.90001 65 8.00001 63.8 10.4L62.7 12.7C61.5 15.1 59.3 15.7 57 14.6C54.7 13.5 53.8 11.3 55 8.90001L56.1 6.60001C57.3 4.20001 59.4 3.60001 61.8 4.70001ZM56.7 9.80001C56.1 10.9 56.5 12.4 57.7 13C58.8 13.6 60.3 13.2 60.9 12V11.9L62.1 9.50001C62.7 8.40001 62.2 6.90001 61.1 6.30001C60 5.70001 58.5 6.20001 57.9 7.30001V7.40001L56.7 9.80001Z" fill="#FFD700"/>
<path d="M70.5 10.6L65.8 15.6C65 16.5 65.1 17.8 66 18.6C66.8 19.3 68.1 19.3 68.9 18.5L73.6 13.5L75 14.9L70.3 19.9C68.7 21.7 66.5 21.7 64.6 19.9C62.7 18.1 62.6 16 64.3 14.2L69 9.2L70.5 10.6Z" fill="#FFD700"/>
<path d="M74.2 20.2C76.5 18.9 78.7 19.6 80 21.8C81.3 24 80.8 26.2 78.8 27.3L78.6 27.4L77.6 25.7L77.9 25.6C78.9 25.1 79.2 23.8 78.6 22.9C78.6 22.8 78.5 22.8 78.5 22.7C78 21.6 76.6 21.2 75.5 21.7C75.4 21.8 75.3 21.8 75.2 21.9L73 23.2C71.9 23.7 71.4 25 71.9 26.1C71.9 26.2 72 26.3 72.1 26.4C72.5 27.4 73.7 27.9 74.7 27.4C74.8 27.4 74.8 27.3 74.9 27.3L75.3 27.1L76.3 28.8L75.9 29C73.9 30.1 71.9 29.6 70.5 27.3C69.1 25 69.6 22.8 72 21.5L74.2 20.2Z" fill="#FFD700"/>
<path d="M83.9 31.4L79.7 32.4L80.6 36.3L84.8 35.3L85.2 37.2L75 39.6L74.6 37.7L78.9 36.7L78 32.8L73.7 33.8L73.3 31.9L83.5 29.5L83.9 31.4Z" fill="#FFD700"/>
<path d="M81.4 47.5C84 48.1 85.1 50.1 84.5 52.7C83.9 55.3 82.1 56.3 80 55.8H79.8L80.2 53.9H80.4C81.4 54.2 82.4 53.6 82.7 52.6C82.7 52.5 82.8 52.4 82.8 52.3C83.2 51.1 82.5 49.9 81.3 49.5C81.2 49.5 81.1 49.4 81 49.4L78.5 48.8C77.3 48.4 76.1 49.1 75.7 50.3C75.7 50.4 75.6 50.5 75.6 50.6C75.2 51.6 75.7 52.7 76.7 53.1C76.8 53.1 76.9 53.2 77.1 53.2H77.2L77.8 50.7L79.4 51.1L78.4 55.5L76.9 55.2C74.5 54.6 73.3 52.8 73.9 50.3C74.5 47.8 76.3 46.4 79 47L81.4 47.5Z" fill="#FFD700"/>
<path d="M78.5 66.5L76.9 65.6L79.3 61.3L77.1 60.1L74.9 64.1L73.3 63.2L75.5 59.2L73.2 58L70.8 62.4L69.2 61.5L72.5 55.4L81.7 60.4L78.5 66.5Z" fill="#FFD700"/>
<path d="M70.6 75.5L69.3 74.2L71.5 71.9L65.2 65.9L66.6 64.5L72.9 70.5L75.1 68.2L76.4 69.5L70.6 75.5Z" fill="#FFD700"/>
<path d="M61.1 81.4L56.4 72L58.2 71.1L62.9 80.5L61.1 81.4Z" fill="#FFD700"/>
<path d="M54.2 83.9L49.6 76.3H49.5L51.6 84.5L49.7 85L47.1 74.8L50.4 73.9L55 81.5H55.1L53 73.4L54.9 72.9L57.5 83.1L54.2 83.9Z" fill="#FFD700"/>
<path d="M31.5 84.1L31.8 82.3L34.9 82.8L36.4 74.2L38.4 74.5L36.9 83.1L40 83.6L39.7 85.4L31.5 84.1Z" fill="#FFD700"/>
<path d="M24.2 81.3C21.8 80.1 21 78 22.2 75.6L23.3 73.3C24.5 70.9 26.7 70.3 29 71.4C31.3 72.5 32.2 74.7 31 77.1L29.9 79.4C28.7 81.8 26.6 82.4 24.2 81.3ZM29.3 76.2C29.9 75.1 29.5 73.6 28.3 73C27.2 72.4 25.7 72.8 25.1 74V74.1L23.9 76.5C23.3 77.6 23.8 79.1 24.9 79.7C26 80.3 27.5 79.8 28.1 78.7V78.6L29.3 76.2Z" fill="#FFD700"/>
<path d="M15.5 75.4L20.2 70.4C21 69.5 20.9 68.2 20 67.4C19.2 66.7 17.9 66.7 17.1 67.5L12.4 72.5L11 71.1L15.7 66.1C17.3 64.3 19.5 64.3 21.4 66.1C23.3 67.9 23.4 70 21.7 71.8L17 76.8L15.5 75.4Z" fill="#FFD700"/>
<path d="M11.8 65.8C9.49998 67.1 7.29998 66.4 5.99998 64.2C4.69998 62 5.19998 59.8 7.19998 58.7L7.39998 58.6L8.39998 60.3L8.09998 60.4C7.09998 60.9 6.79998 62.2 7.39998 63.1C7.39998 63.2 7.49998 63.2 7.49998 63.3C7.99998 64.4 9.39998 64.8 10.5 64.3C10.6 64.2 10.7 64.2 10.8 64.1L13 62.8C14.1 62.3 14.6 61 14.1 59.9C14.1 59.8 14 59.7 13.9 59.6C13.5 58.6 12.3 58.1 11.3 58.6C11.2 58.6 11.2 58.7 11.1 58.7L10.7 58.9L9.69998 57.2L9.99998 57C12 55.9 14 56.4 15.4 58.7C16.8 61 16.3 63.2 13.9 64.5L11.8 65.8Z" fill="#FFD700"/>
<path d="M2.09999 54.6L6.29999 53.6L5.39999 49.7L1.19999 50.7L0.799988 48.8L11 46.4L11.4 48.3L7.09999 49.3L7.99999 53.2L12.3 52.2L12.7 54.1L2.59999 56.5L2.09999 54.6Z" fill="#FFD700"/>
</svg>
