<svg xmlns="http://www.w3.org/2000/svg " width="65 " height="57.885 " viewBox="0 0 65 57.885 " class="ReactLogo__SvgStyles-sc-1o0azil-0 bJOHas "><g transform="translate(-175.7 -78) "><path class="a" d="M240.7,106.949c0-4.306-5.392-8.387-13.66-10.917,1.908-8.426,1.06-15.13-2.676-17.277a5.809,5.809,0,0,0-2.968-.742v2.955a3.068,3.068,0,0,1,1.51.344c1.8,1.033,2.584,4.968,1.974,10.03-.146,1.245-.384,2.557-.676,3.9a64.207,64.207,0,0,0-8.413-1.444,64.629,64.629,0,0,0-5.512-6.625c4.319-4.014,8.373-6.214,11.129-6.214V78h0c-3.643,0-8.413,2.6-13.236,7.1-4.823-4.478-9.592-7.049-13.236-7.049v2.955c2.743,0,6.81,2.186,11.129,6.174a62.576,62.576,0,0,0-5.472,6.611,61.871,61.871,0,0,0-8.426,1.457c-.3-1.325-.53-2.61-.689-3.842-.623-5.061.146-9,1.934-10.043a2.949,2.949,0,0,1,1.524-.344V78.066h0a5.908,5.908,0,0,0-2.994.742c-3.723,2.146-4.558,8.837-2.637,17.237-8.241,2.544-13.607,6.611-13.607,10.9s5.392,8.387,13.66,10.917c-1.908,8.426-1.06,15.13,2.676,17.277a5.824,5.824,0,0,0,2.981.742c3.644,0,8.413-2.6,13.236-7.1,4.823,4.478,9.592,7.049,13.236,7.049a5.907,5.907,0,0,0,2.994-.742c3.723-2.146,4.558-8.837,2.637-17.237C235.334,115.323,240.7,111.242,240.7,106.949Zm-17.25-8.837c-.49,1.709-1.1,3.471-1.789,5.233-.543-1.06-1.113-2.12-1.736-3.18s-1.259-2.093-1.908-3.1C219.9,97.344,221.714,97.688,223.45,98.112Zm-6.068,14.11c-1.033,1.789-2.093,3.485-3.193,5.061-1.974.172-3.975.265-5.989.265s-4-.093-5.962-.252q-1.65-2.365-3.206-5.035-1.51-2.6-2.756-5.273c.821-1.775,1.749-3.551,2.743-5.286,1.033-1.789,2.093-3.485,3.193-5.061,1.974-.172,3.975-.265,5.989-.265s4,.093,5.962.252q1.65,2.365,3.206,5.035,1.51,2.6,2.756,5.273C219.29,108.711,218.375,110.487,217.382,112.222Zm4.279-1.722c.715,1.775,1.325,3.551,1.828,5.273-1.736.424-3.564.782-5.459,1.06.649-1.02,1.3-2.067,1.908-3.14S221.118,111.56,221.661,110.5Zm-13.435,14.137a54.618,54.618,0,0,1-3.683-4.24c1.192.053,2.411.093,3.643.093s2.478-.026,3.683-.093A51.712,51.712,0,0,1,208.227,124.637Zm-9.857-7.8c-1.881-.278-3.7-.623-5.432-1.047.49-1.709,1.1-3.471,1.789-5.233.543,1.06,1.113,2.12,1.736,3.18S197.72,115.826,198.369,116.833Zm9.791-27.571a54.621,54.621,0,0,1,3.683,4.24c-1.192-.053-2.411-.093-3.643-.093s-2.478.026-3.683.093A51.713,51.713,0,0,1,208.16,89.262Zm-9.8,7.8c-.649,1.02-1.3,2.067-1.908,3.14s-1.179,2.12-1.722,3.18c-.715-1.775-1.325-3.551-1.828-5.273C194.633,97.7,196.461,97.344,198.356,97.065Zm-11.99,16.588c-4.69-2-7.724-4.624-7.724-6.7s3.034-4.717,7.724-6.7c1.139-.49,2.385-.927,3.67-1.338a63.634,63.634,0,0,0,2.981,8.069A62.735,62.735,0,0,0,190.075,115C188.764,114.594,187.518,114.144,186.366,113.653Zm7.128,18.933c-1.8-1.033-2.584-4.968-1.974-10.03.146-1.245.384-2.557.676-3.9a64.207,64.207,0,0,0,8.413,1.444,64.631,64.631,0,0,0,5.512,6.625c-4.319,4.014-8.373,6.214-11.129,6.214A3.162,3.162,0,0,1,193.494,132.586Zm31.427-10.1c.623,5.061-.146,9-1.934,10.043a2.948,2.948,0,0,1-1.524.344c-2.743,0-6.81-2.186-11.129-6.174a62.58,62.58,0,0,0,5.472-6.611,61.87,61.87,0,0,0,8.426-1.457A37.093,37.093,0,0,1,224.92,122.49Zm5.1-8.837c-1.139.49-2.385.927-3.67,1.338a63.63,63.63,0,0,0-2.981-8.069,62.735,62.735,0,0,0,2.941-8.029c1.312.411,2.557.861,3.723,1.351,4.69,2,7.724,4.624,7.724,6.7S234.711,111.666,230.021,113.653Z"></path><path class="a " d="M320.8,78.4Z " transform="translate(-125.875 -0.347) "></path><circle class="a " cx="6.055 " cy="6.055 " r="6.055 " transform="translate(202.132 100.894) "></circle><path class="a " d="M520.5,78.1Z " transform="translate(-299.117-0.087) "></path></g></svg>